<svg width="231" height="299" viewBox="0 0 231 299" fill="none" xmlns="http://www.w3.org/2000/svg">
<g filter="url(#filter0_d_2831_19640)">
<path d="M158.735 135.078L145.987 123.959L82.5822 104.964L124.112 159.882L158.735 135.078Z" fill="#D9D9D9"/>
<path d="M126.685 155.479L180.965 120.928L201.098 127.908L177.778 175.869L148.727 191.775L126.685 155.479Z" fill="white"/>
<path d="M148.727 191.775L161.274 143.145L62.8296 131.165L123.608 193.952L148.727 191.775Z" fill="#F0F0F0"/>
<path d="M123.608 193.952L78.5943 254.545L92.6638 186.584L104.114 173.814L123.608 193.952Z" fill="white"/>
<path d="M161.273 143.145L177.778 175.869L148.726 191.775L161.273 143.145Z" fill="#D6D6D6"/>
<path d="M201.098 127.909L211.881 144.269L196.25 137.878L201.098 127.909Z" fill="#E5E5E5"/>
<path d="M180.965 120.928L206.425 123.49L201.098 127.908L180.965 120.928Z" fill="#EDEDED"/>
<path d="M211.881 144.269L206.425 123.49L201.098 127.909L211.881 144.269Z" fill="#D6D6D6"/>
<path d="M123.608 193.951L98.4042 252.828L101.101 224.249L123.608 193.951Z" fill="#D6D6D6"/>
</g>
<path d="M78.9931 177.899C-68.0111 164.865 -121.872 72.9226 -130.427 28.5805" stroke="#A7AFDD" stroke-width="3" stroke-linecap="round" stroke-dasharray="6 6"/>
<defs>
<filter id="filter0_d_2831_19640" x="62.8296" y="104.964" width="168.052" height="193.582" filterUnits="userSpaceOnUse" color-interpolation-filters="sRGB">
<feFlood flood-opacity="0" result="BackgroundImageFix"/>
<feColorMatrix in="SourceAlpha" type="matrix" values="0 0 0 0 0 0 0 0 0 0 0 0 0 0 0 0 0 0 127 0" result="hardAlpha"/>
<feOffset dx="10" dy="35"/>
<feGaussianBlur stdDeviation="4.5"/>
<feComposite in2="hardAlpha" operator="out"/>
<feColorMatrix type="matrix" values="0 0 0 0 0 0 0 0 0 0 0 0 0 0 0 0 0 0 0.2 0"/>
<feBlend mode="normal" in2="BackgroundImageFix" result="effect1_dropShadow_2831_19640"/>
<feBlend mode="normal" in="SourceGraphic" in2="effect1_dropShadow_2831_19640" result="shape"/>
</filter>
</defs>
</svg>
