<svg width="88" height="88" viewBox="0 0 88 88" fill="none" xmlns="http://www.w3.org/2000/svg">
<path fill-rule="evenodd" clip-rule="evenodd" d="M44 88C68.3005 88 88 68.3005 88 44C88 19.6995 68.3005 0 44 0C19.6995 0 0 19.6995 0 44C0 68.3005 19.6995 88 44 88ZM28.1058 68.6399H52.5938C65.1531 68.6399 73.8336 54.6827 64.5775 43.9895C73.4699 33.8595 66.7655 19.36 54.1244 19.36H26.6846C22.6561 19.36 19.36 22.7292 19.36 26.8471V59.7005C19.36 64.6173 23.2955 68.64 28.1058 68.64V68.6399ZM59.1853 48.5014C54.5273 52.9712 48.9753 55.5682 43.0133 55.5682C37.0211 55.5682 31.4428 52.944 26.7703 48.4318L30.3758 44.5458C34.1072 47.6782 38.4189 49.4683 43.0132 49.4683C47.5318 49.4683 51.7769 47.7364 55.4655 44.6991L59.1851 48.5014H59.1853Z" fill="#3F51B5"/>
</svg>
