<svg width="58" height="58" viewBox="0 0 58 58" fill="none" xmlns="http://www.w3.org/2000/svg">
<path fill-rule="evenodd" clip-rule="evenodd" d="M29 58C45.0163 58 58 45.0163 58 29C58 12.9837 45.0163 0 29 0C12.9837 0 0 12.9837 0 29C0 45.0163 12.9837 58 29 58ZM18.5243 45.2399H34.6641C42.9418 45.2399 48.6631 36.0409 42.5624 28.9931C48.4234 22.3165 44.0045 12.76 35.6729 12.76H17.5876C14.9324 12.76 12.76 14.9806 12.76 17.6947V39.348C12.76 42.5887 15.3539 45.24 18.5243 45.24V45.2399ZM39.0085 31.9668C35.9385 34.9128 32.2792 36.6245 28.3497 36.6245C24.4003 36.6245 20.7237 34.8949 17.6441 31.9209L20.0205 29.3597C22.4797 31.4242 25.3215 32.6041 28.3496 32.6041C31.3278 32.6041 34.1257 31.4626 36.5568 29.4608L39.0084 31.9668H39.0085Z" fill="white"/>
</svg>
