<svg width="375" height="145" viewBox="0 0 375 145" fill="none" xmlns="http://www.w3.org/2000/svg">
<path d="M250.683 100.95C109.222 144.113 24.6189 78.9529 0 40.9775" stroke="#A7AFDD" stroke-width="3" stroke-linecap="round" stroke-dasharray="6 6"/>
<g clip-path="url(#clip0_3477_24729)" filter="url(#filter0_d_3477_24729)">
<path d="M362.515 2.99999L279.055 97.5252L278.215 58.5705L362.515 2.99999Z" fill="#C2C2C2"/>
<path d="M264.812 59.1644L264.813 59.1713L279.056 97.525L284.543 72.8755L362.516 3.00077L264.812 59.1644Z" fill="#DBDBDB"/>
<path opacity="0.1" d="M264.812 59.1644L264.813 59.1713L279.056 97.525L284.543 72.8755L362.516 3.00077L264.812 59.1644Z" fill="url(#paint0_linear_3477_24729)"/>
<path d="M237.707 52.382L362.519 2.99922L264.812 59.1644L237.707 52.382Z" fill="white"/>
<path opacity="0.1" d="M237.707 52.382L362.519 2.99922L264.812 59.1644L237.707 52.382Z" fill="url(#paint1_linear_3477_24729)"/>
<path d="M362.515 2.99999L320.295 97.7188L284.54 72.8749L362.515 2.99999Z" fill="white"/>
<path opacity="0.1" d="M362.515 2.99999L320.295 97.7188L284.54 72.8749L362.515 2.99999Z" fill="url(#paint2_linear_3477_24729)"/>
</g>
<defs>
<filter id="filter0_d_3477_24729" x="198" y="2.99999" width="180.831" height="138.631" filterUnits="userSpaceOnUse" color-interpolation-filters="sRGB">
<feFlood flood-opacity="0" result="BackgroundImageFix"/>
<feColorMatrix in="SourceAlpha" type="matrix" values="0 0 0 0 0 0 0 0 0 0 0 0 0 0 0 0 0 0 127 0" result="hardAlpha"/>
<feOffset dx="-20" dy="15"/>
<feGaussianBlur stdDeviation="7.5"/>
<feColorMatrix type="matrix" values="0 0 0 0 0.101961 0 0 0 0 0.121569 0 0 0 0 0.443137 0 0 0 0.26 0"/>
<feBlend mode="normal" in2="BackgroundImageFix" result="effect1_dropShadow_3477_24729"/>
<feBlend mode="normal" in="SourceGraphic" in2="effect1_dropShadow_3477_24729" result="shape"/>
</filter>
<linearGradient id="paint0_linear_3477_24729" x1="265.203" y1="61.157" x2="369.893" y2="40.6382" gradientUnits="userSpaceOnUse">
<stop stop-color="white"/>
<stop offset="1" stop-color="#6A6354"/>
</linearGradient>
<linearGradient id="paint1_linear_3477_24729" x1="236.497" y1="46.2065" x2="366.012" y2="20.8221" gradientUnits="userSpaceOnUse">
<stop stop-color="white"/>
<stop offset="1" stop-color="#6A6354"/>
</linearGradient>
<linearGradient id="paint2_linear_3477_24729" x1="282.394" y1="61.9253" x2="370.673" y2="44.6231" gradientUnits="userSpaceOnUse">
<stop stop-color="white"/>
<stop offset="1" stop-color="#6A6354"/>
</linearGradient>
<clipPath id="clip0_3477_24729">
<rect width="131.979" height="84.83" fill="white" transform="translate(233 28.3844) rotate(-11.0892)"/>
</clipPath>
</defs>
</svg>
